# xmcd
#
# Track frame offsets:
#	150
#	18473
#	38329
#	58913
#	78184
#	96349
#	112030
#	130698
#	153164
#	174219
#	195006
#	213970
#
# Disc length: 3233 seconds
#
# Revision: 1
# Processed by: cddbd v1.5.2PL0 Copyright (c) Steve Scherf et al.
# Submitted via: EZCDAudioConverter 8.0.2.1
#
DISCID=880c9f0c
DTITLE=Như Loan - Tình Lặng Câm
DYEAR=2006
DGENRE=Pop
TTITLE0=Người điên biết yêu
TTITLE1=Ngày đó là mơ
TTITLE2=Cơn mưa cuối mùa
TTITLE3=Romeo and Juliet - A Time For Us
TTITLE4=Mùa hè kỷ niệm
TTITLE5=Anh thích em lúc cưới
TTITLE6=Say Nothing To You
TTITLE7=Nỗi đau tình em
TTITLE8=Hứa, Nói đi em
TTITLE9=Tình Lặng Câm
TTITLE10=Đêm tạ tình
TTITLE11=Yêu anh dịu dàng
EXTD=
EXTT0=
EXTT1=
EXTT2=
EXTT3=
EXTT4=
EXTT5=
EXTT6=
EXTT7=
EXTT8=
EXTT9=
EXTT10=
EXTT11=
PLAYORDER=
